<?xml version="1.0" encoding="utf-8"?>
<!-- Generator: Adobe Illustrator 16.0.0, SVG Export Plug-In . SVG Version: 6.00 Build 0)  -->
<!DOCTYPE svg PUBLIC "-//W3C//DTD SVG 1.1//EN" "http://www.w3.org/Graphics/SVG/1.1/DTD/svg11.dtd">
<svg version="1.1" id="Layer_1" xmlns="http://www.w3.org/2000/svg" xmlns:xlink="http://www.w3.org/1999/xlink" x="0px" y="0px"
	 width="128px" height="128px" viewBox="0 0 128 128" enable-background="new 0 0 128 128" xml:space="preserve">
<g>
	<g>
		<g>
			<path fill="#282D33" d="M20.585,118.844c-11.179,0-20.273-9.008-20.273-20.079c0-11.07,9.095-20.076,20.273-20.076
				c3.979,0,7.831,1.141,11.139,3.3c1.766,1.149,3.338,2.565,4.672,4.207l-3.102,2.52c-1.071-1.318-2.334-2.455-3.752-3.379
				c-2.658-1.735-5.755-2.651-8.957-2.651c-8.975,0-16.276,7.213-16.276,16.08s7.302,16.082,16.276,16.082
				c2.704,0,5.379-0.667,7.737-1.93c2.008-1.071,3.736-2.521,5.14-4.309l3.144,2.469c-1.748,2.226-3.901,4.031-6.399,5.365
				C27.272,118.012,23.944,118.844,20.585,118.844z"/>
		</g>
		<g>
			<g>
				<rect x="17.327" y="91.646" fill="#282D33" width="3.996" height="36.249"/>
			</g>
			<g>
				
					<rect x="21.289" y="100.769" transform="matrix(0.7032 0.711 -0.711 0.7032 82.5208 15.0061)" fill="#282D33" width="3.997" height="11.144"/>
			</g>
			<g>
				
					<rect x="9.79" y="100.423" transform="matrix(0.711 0.7032 -0.7032 0.711 76.457 18.7938)" fill="#282D33" width="11.145" height="3.996"/>
			</g>
		</g>
	</g>
	<g>
		<polygon fill="#282D33" points="121.248,128 33.095,128 33.095,30.653 37.092,30.653 37.092,124.003 117.251,124.003 
			117.251,30.653 121.248,30.653 		"/>
	</g>
	<g>
		<path fill="#282D33" d="M112.657,127.875H93.033V86.606h19.624V127.875z M97.029,123.878h11.631V90.604H97.029V123.878z"/>
	</g>
	<g>
		<path fill="#282D33" d="M127.688,31.392H26.656L40.436,0h73.463L127.688,31.392z M32.775,27.396h88.791L111.289,3.997H43.046
			L32.775,27.396z"/>
	</g>
	<g>
		<g>
			<path fill="#282D33" d="M61.31,68.664H42.458V37.31H61.31V68.664z M46.455,64.667h10.857v-23.36H46.455V64.667z"/>
		</g>
		<g>
			<path fill="#282D33" d="M86.597,68.664H67.75V37.31h18.847V68.664z M71.746,64.667H82.6v-23.36H71.746V64.667z"/>
		</g>
		<g>
			<path fill="#282D33" d="M111.885,68.664H93.033V37.31h18.852V68.664z M97.029,64.667h10.858v-23.36H97.029V64.667z"/>
		</g>
	</g>
	<g>
		<path fill="#282D33" d="M61.429,117.959H42.576V86.606h18.853V117.959z M46.572,113.963h10.859V90.604H46.572V113.963z"/>
	</g>
	<g>
		<path fill="#282D33" d="M86.716,117.959H67.868V86.606h18.848V117.959z M71.864,113.963h10.854V90.604H71.864V113.963z"/>
	</g>
	<g>
		<rect x="29.913" y="74.3" fill="#282D33" width="94.521" height="3.997"/>
	</g>
	<g>
		<g>
			<path fill="#282D33" d="M43.008,22.346c-4.52,0-8.196-3.646-8.196-8.127h3.997c0,2.278,1.884,4.131,4.199,4.131
				c2.314,0,4.196-1.853,4.196-4.131h3.997C51.201,18.7,47.525,22.346,43.008,22.346z"/>
		</g>
		<g>
			<path fill="#282D33" d="M55.296,22.346c-4.52,0-8.196-3.646-8.196-8.127h3.997c0,2.278,1.884,4.131,4.199,4.131
				c2.314,0,4.197-1.853,4.197-4.131h3.997C63.49,18.7,59.813,22.346,55.296,22.346z"/>
		</g>
		<g>
			<path fill="#282D33" d="M67.585,22.346c-4.521,0-8.198-3.646-8.198-8.127h3.996c0,2.278,1.886,4.131,4.202,4.131
				c2.313,0,4.195-1.853,4.195-4.131h3.997C75.777,18.7,72.103,22.346,67.585,22.346z"/>
		</g>
		<g>
			<path fill="#282D33" d="M79.873,22.346c-4.521,0-8.196-3.646-8.196-8.127h3.996c0,2.278,1.885,4.131,4.2,4.131
				c2.313,0,4.194-1.853,4.194-4.131h3.997C88.064,18.7,84.39,22.346,79.873,22.346z"/>
		</g>
		<g>
			<path fill="#282D33" d="M92.157,22.346c-4.517,0-8.191-3.646-8.191-8.127h3.997c0,2.278,1.882,4.131,4.194,4.131
				c2.315,0,4.199-1.853,4.199-4.131h3.996C100.353,18.7,96.676,22.346,92.157,22.346z"/>
		</g>
	</g>
</g>
</svg>
