<?xml version="1.0" encoding="utf-8"?>
<!-- Generator: Adobe Illustrator 22.0.1, SVG Export Plug-In . SVG Version: 6.00 Build 0)  -->
<svg version="1.1" id="Layer_1" xmlns="http://www.w3.org/2000/svg" xmlns:xlink="http://www.w3.org/1999/xlink" x="0px" y="0px"
	 viewBox="0 0 512 512" style="enable-background:new 0 0 512 512;" xml:space="preserve">
<style type="text/css">
	.st0{fill:#35216D;}
	.st1{fill:#EDF3FC;}
	.st2{fill:#330D84;}
	.st3{fill:#FFBE1B;}
	.st4{fill:#0061F3;}
	.st5{fill:#8C7BFD;}
	.st6{fill:#FFFFFF;}
	.st7{fill:#5932AE;}
	.st8{fill:#1C46C4;}
	.st9{fill:#6857E5;}
	.st10{fill:#5D8EF9;}
	.st11{fill:#8AC9F9;}
	.st12{fill:#FFE37B;}
	.st13{fill:#FFD000;}
	.st14{fill:#2EF39E;}
	.st15{fill:#330D84;stroke:#330D84;stroke-width:0.6306;stroke-linecap:round;stroke-linejoin:round;stroke-miterlimit:10;}
	.st16{fill:#FFFFFF;stroke:#FFFFFF;stroke-width:0.737;stroke-linecap:round;stroke-linejoin:round;stroke-miterlimit:10;}
	.st17{fill:none;}
	.st18{fill:#FDB813;}
</style>
<g>
	<g>
		<g>
			<path class="st1" d="M255.999,40.928c-118.778,0-215.071,96.294-215.071,215.074c0,118.776,96.292,215.068,215.071,215.068
				S471.07,374.778,471.07,256.002C471.07,137.222,374.777,40.928,255.999,40.928z"/>
		</g>
	</g>
	<g>
		<g>
			<path class="st1" d="M255.999,1C115.391,1,1,115.392,1,256.002C1,396.609,115.391,511,255.999,511S511,396.609,511,256.002
				C511,115.392,396.607,1,255.999,1z M255.999,502.832c-136.103,0-246.83-110.728-246.83-246.83
				c0-136.104,110.727-246.833,246.83-246.833c136.102,0,246.832,110.729,246.832,246.833
				C502.831,392.104,392.101,502.832,255.999,502.832z"/>
		</g>
	</g>
	<path class="st3" d="M349.442,382.514h-167.34c-11.397,0-20.633-9.237-20.633-20.637v-211.76c0-11.39,9.237-20.63,20.633-20.63
		h167.34c11.395,0,20.632,9.241,20.632,20.63v211.76C370.074,373.276,360.838,382.514,349.442,382.514L349.442,382.514z"/>
	<path class="st10" d="M141.926,179.285L141.926,179.285c0-5.82,4.718-10.538,10.538-10.538h18.01
		c5.82,0,10.538,4.718,10.538,10.538l0,0c0,5.82-4.718,10.538-10.538,10.538h-18.01
		C146.644,189.822,141.926,185.104,141.926,179.285z"/>
	<path class="st10" d="M141.926,229.692L141.926,229.692c0-5.82,4.718-10.538,10.538-10.538h18.01
		c5.82,0,10.538,4.718,10.538,10.538l0,0c0,5.82-4.718,10.538-10.538,10.538h-18.01C146.644,240.23,141.926,235.512,141.926,229.692
		z"/>
	<path class="st10" d="M141.926,280.099L141.926,280.099c0-5.82,4.718-10.538,10.538-10.538h18.01
		c5.82,0,10.538,4.718,10.538,10.538l0,0c0,5.82-4.718,10.538-10.538,10.538h-18.01
		C146.644,290.637,141.926,285.919,141.926,280.099z"/>
	<path class="st10" d="M141.926,280.099L141.926,280.099c0-5.82,4.718-10.538,10.538-10.538h18.01
		c5.82,0,10.538,4.718,10.538,10.538l0,0c0,5.82-4.718,10.538-10.538,10.538h-18.01
		C146.644,290.637,141.926,285.919,141.926,280.099z"/>
	<path class="st10" d="M141.926,330.507L141.926,330.507c0-5.82,4.718-10.538,10.538-10.538h18.01
		c5.82,0,10.538,4.718,10.538,10.538l0,0c0,5.82-4.718,10.538-10.538,10.538h-18.01
		C146.644,341.045,141.926,336.327,141.926,330.507z"/>
	<path class="st2" d="M182.102,129.486c-11.397,0-20.633,9.24-20.633,20.63v18.631h9.005c5.82,0,10.538,4.718,10.538,10.538
		s-4.718,10.538-10.538,10.538h-9.005v29.332h9.005c5.82,0,10.538,4.718,10.538,10.538s-4.718,10.538-10.538,10.538h-9.005v29.332
		h9.005c5.82,0,10.538,4.718,10.538,10.538c0,5.82-4.718,10.538-10.538,10.538h-9.005v29.332h9.005
		c5.82,0,10.538,4.718,10.538,10.538s-4.718,10.538-10.538,10.538h-9.005v20.833c0,11.399,9.237,20.637,20.633,20.637h20.139
		V129.486H182.102z"/>
	<g>
		<path id="XMLID_4_" class="st9" d="M306.052,197.018c5.843,0.477,22.835,9.607,24.818,24.183
			c2.392,17.578-39.244,84.549-63.661,87.693c-2.473,0.323-4.925,0.381-7.302,0.185c-17.283-1.414-26.578-13.551-26.71-19.354
			c-0.13-5.805,8.317-16.16,14.621-17.257c4.976-0.665,9.645,2.869,12.409,5.392c2.885,2.634,6.368,5.473,14.32,2.189
			c8.282-3.42,30.163-33.913,30.697-42.21c0.37-5.663-5.102-8.012-9.735-12.292c-2.212-2.046-5.399-6.668-5.027-12.255
			C290.762,208.952,299.292,196.465,306.052,197.018z"/>
	</g>
	<path class="st2" d="M439.625,259.078l2.306,0.549l-2.306,0.551c-13.482,3.236-24.005,13.321-27.392,26.233l-0.578,2.205
		l-0.572-2.205c-3.384-12.912-13.913-22.997-27.399-26.233l-2.296-0.551l2.296-0.549c13.487-3.237,24.016-13.325,27.399-26.233
		l0.572-2.206l0.578,2.206C415.62,245.753,426.143,255.842,439.625,259.078L439.625,259.078z"/>
	<path class="st10" d="M215.718,413.519l1.374,0.327l-1.374,0.329c-8.035,1.928-14.306,7.939-16.324,15.633l-0.344,1.314
		l-0.341-1.314c-2.016-7.695-8.291-13.705-16.329-15.633l-1.368-0.329l1.368-0.327c8.038-1.929,14.312-7.941,16.329-15.634
		l0.341-1.315l0.344,1.315C201.412,405.578,207.683,411.59,215.718,413.519L215.718,413.519z"/>
	<path class="st10" d="M295.794,423.967l2.037,0.485l-2.037,0.487c-11.912,2.859-21.209,11.769-24.202,23.177l-0.51,1.948
		l-0.505-1.948c-2.99-11.408-12.292-20.318-24.208-23.177l-2.029-0.487l2.029-0.485c11.916-2.86,21.219-11.773,24.208-23.178
		l0.505-1.949l0.51,1.949C274.585,412.194,283.882,421.107,295.794,423.967L295.794,423.967z"/>
	<path class="st3" d="M150.736,129.091l1.659,0.395l-1.659,0.397c-9.701,2.328-17.273,9.585-19.71,18.876l-0.416,1.587l-0.412-1.587
		c-2.435-9.291-10.011-16.548-19.715-18.876l-1.652-0.397l1.652-0.395c9.705-2.329,17.281-9.588,19.715-18.876l0.412-1.588
		l0.416,1.588C133.463,119.503,141.035,126.762,150.736,129.091L150.736,129.091z"/>
	<path class="st3" d="M127.915,170.726l1.183,0.282l-1.183,0.283c-6.914,1.659-12.311,6.831-14.048,13.453l-0.296,1.131
		l-0.293-1.131c-1.735-6.622-7.135-11.794-14.051-13.453l-1.178-0.283l1.178-0.282c6.916-1.66,12.316-6.833,14.051-13.453
		l0.293-1.132l0.296,1.132C115.604,163.893,121.001,169.066,127.915,170.726L127.915,170.726z"/>
	<path class="st2" d="M281.873,92.139l2.002,0.477l-2.002,0.479c-11.705,2.809-20.842,11.565-23.782,22.775l-0.501,1.914
		l-0.497-1.914c-2.938-11.21-12.079-19.966-23.788-22.775l-1.994-0.479l1.994-0.477c11.709-2.81,20.851-11.569,23.788-22.776
		l0.497-1.916l0.501,1.916C261.031,80.57,270.168,89.329,281.873,92.139L281.873,92.139z"/>
</g>
</svg>
