<svg id="artwork" xmlns="http://www.w3.org/2000/svg" width="64" height="64" viewBox="0 0 64 64"><title>podcast</title><path d="M62,30.5H57.452A25.531,25.531,0,0,0,33.5,6.548V2a1.5,1.5,0,0,0-3,0V6.548A25.531,25.531,0,0,0,6.548,30.5H2a1.5,1.5,0,0,0,0,3H6.548A25.531,25.531,0,0,0,30.5,57.452V62a1.5,1.5,0,0,0,3,0V57.452A25.531,25.531,0,0,0,57.452,33.5H62a1.5,1.5,0,0,0,0-3ZM33.5,54.444v-3.02A17.516,17.516,0,0,0,49.5,34V32a1.5,1.5,0,0,0-3,0v2a14.5,14.5,0,0,1-29,0V32a1.5,1.5,0,0,0-3,0v2a17.516,17.516,0,0,0,16,17.424v3.02a22.5,22.5,0,1,1,3,0Z"/><path d="M32,12.5A11.513,11.513,0,0,0,20.5,24V34a11.5,11.5,0,0,0,23,0V24A11.513,11.513,0,0,0,32,12.5ZM32,18a6.006,6.006,0,0,0-6,6,1.5,1.5,0,0,1-3,0,9.01,9.01,0,0,1,9-9,1.5,1.5,0,0,1,0,3Z" style="fill:#3e3ef4"/></svg>