<?xml version="1.0" encoding="utf-8"?>
<!-- Generator: Adobe Illustrator 23.0.4, SVG Export Plug-In . SVG Version: 6.00 Build 0)  -->
<svg version="1.1" id="Layer_1" xmlns="http://www.w3.org/2000/svg" xmlns:xlink="http://www.w3.org/1999/xlink" x="0px" y="0px"
	 viewBox="0 0 32 32" style="enable-background:new 0 0 32 32;" xml:space="preserve">
<style type="text/css">
	.st0{fill:#008AD0;}
	.st1{fill:#333333;}
</style>
<g>
	<g>
		<path class="st1" d="M29,24H3c-0.552,0-1-0.447-1-1V7c0-2.206,1.794-4,4-4h20c2.206,0,4,1.794,4,4v16C30,23.553,29.552,24,29,24z
			 M4,22h24V7c0-1.103-0.897-2-2-2H6C4.897,5,4,5.897,4,7V22z"/>
	</g>
	<g>
		<path class="st1" d="M28,28H4c-1.654,0-3-1.346-3-3v-2c0-0.553,0.448-1,1-1h28c0.552,0,1,0.447,1,1v2C31,26.654,29.654,28,28,28z
			 M3,24v1c0,0.552,0.449,1,1,1h24c0.551,0,1-0.448,1-1v-1H3z"/>
	</g>
	<g>
		<path class="st0" d="M16,9h-3c-0.552,0-1-0.447-1-1s0.448-1,1-1h3c0.552,0,1,0.447,1,1S16.552,9,16,9z"/>
	</g>
	<g>
		<path class="st0" d="M20,9h-1c-0.552,0-1-0.447-1-1s0.448-1,1-1h1c0.552,0,1,0.447,1,1S20.552,9,20,9z"/>
	</g>
</g>
</svg>
