<?xml version="1.0" encoding="UTF-8"?>
<svg id="Layer_2" data-name="Layer 2" xmlns="http://www.w3.org/2000/svg" viewBox="0 0 621.53 263.4">
  <defs>
    <style>
      .cls-1 {
        fill: #fff;
      }

      .cls-2 {
        fill: #cc9d27;
      }
    </style>
  </defs>
  <g id="Layer_1-2" data-name="Layer 1">
    <g>
      <g>
        <g>
          <path class="cls-1" d="m341.81,147.14c2.52-2.52,6.62-2.52,9.14,0l40.03,40.03h0c9.47,9.48,9.46,24.83,0,34.3h0s-40.02,40.03-40.02,40.03c-2.52,2.52-6.62,2.52-9.14,0l-4.57-4.57c-2.52-2.52-2.52-6.62,0-9.14l35.28-35.28c4.52-4.52,4.52-11.86,0-16.38l-35.28-35.28c-2.52-2.52-2.52-6.62,0-9.14l4.57-4.57Z"/>
          <path class="cls-1" d="m282.33,261.51c-2.52,2.52-6.62,2.52-9.14,0l-40.03-40.03h0c-9.47-9.48-9.46-24.83,0-34.3h0s40.02-40.03,40.02-40.03c2.52-2.52,6.62-2.52,9.14,0l4.57,4.57c2.52,2.52,2.52,6.62,0,9.14l-35.28,35.28c-4.52,4.52-4.52,11.86,0,16.38l35.28,35.28c2.52,2.52,2.52,6.62,0,9.14l-4.57,4.57Z"/>
        </g>
        <rect class="cls-2" x="292.66" y="184.92" width="38.81" height="38.81" transform="translate(388.26 569.47) rotate(-135)"/>
      </g>
      <g>
        <path class="cls-1" d="m154.79,26.09c-15.95,0-30.06,7.86-38.7,19.91V0h-8.88v73.67c0,26.28,21.3,47.58,47.58,47.58s47.58-21.3,47.58-47.58-21.3-47.58-47.58-47.58Zm0,86.67c-21.58,0-39.08-17.51-39.08-39.09s17.5-39.09,39.08-39.09,39.1,17.5,39.1,39.09-17.51,39.09-39.1,39.09Z"/>
        <path class="cls-1" d="m95.16,26.09v47.58c0,26.28-21.3,47.58-47.58,47.58S0,99.95,0,73.67v-38.7h8.88v38.7c0,21.37,17.32,38.69,38.7,38.69s38.69-17.32,38.69-38.69V26.09h8.89Z"/>
        <path class="cls-1" d="m306.88,34.97v38.7c0,26.28-21.3,47.58-47.58,47.58s-47.58-21.3-47.58-47.58V26.09h8.88v47.58c0,21.37,17.32,38.69,38.7,38.69s38.69-17.32,38.69-38.69v-38.7h8.89Z"/>
        <path class="cls-2" d="m383.73,95.79c0,7.42-2.96,13.38-9.03,18.2-6.07,4.8-14.22,7.24-24.23,7.24s-17.98-2.35-23.99-7c-5.61-4.33-8.62-9.65-9.19-16.27l-.04-.43h9.46l.04.34c.57,4.35,2.83,7.94,6.7,10.68,4.18,2.94,9.85,4.43,16.84,4.43,7.45,0,13.34-1.56,17.53-4.63,4.28-3.13,6.45-7.37,6.45-12.59,0-3.77-1.52-6.7-4.53-8.72-2.84-1.88-6.36-3.23-10.48-3.98-2.03-.37-4.16-.76-6.37-1.16l-20.11-3.68c-3.94-.71-7.12-2.6-9.7-5.78-2.54-3.13-3.84-7.33-3.84-12.5,0-7.43,2.73-13.3,8.37-17.95,5.61-4.63,13.24-6.98,22.68-6.98s16.89,2.29,22.44,6.82c5.18,4.22,7.97,9.38,8.53,15.78l.04.43h-9.13l-.04-.34c-.56-4.02-2.66-7.41-6.25-10.06-3.9-2.9-9.09-4.37-15.4-4.37-6.66,0-12,1.42-15.91,4.23-4.01,2.88-6.04,6.81-6.04,11.67,0,4.14,2.23,7.32,6.45,9.18,3.95,1.76,8.72,3.05,14.15,3.83,4.24.63,8.51,1.25,12.79,1.88l3.42.49c5.18.75,9.59,2.9,13.14,6.39,3.5,3.44,5.27,8.44,5.27,14.86Z"/>
        <path class="cls-2" d="m535.3,35.02v8.89c-18.89,0-34.22,15.32-34.22,34.23v43.11h-8.89v-43.11c0-23.82,19.31-43.12,43.11-43.12Z"/>
        <path class="cls-2" d="m481.08,36.73v41.4c0,23.81-19.3,43.11-43.12,43.11s-43.11-19.3-43.11-43.11v-41.4h8.89v41.4c0,18.9,15.32,34.22,34.22,34.22s34.23-15.32,34.23-34.22v-41.4h8.89Z"/>
        <path class="cls-2" d="m621.53,78.14c0-23.82-19.31-43.12-43.12-43.12s-43.11,19.3-43.11,43.12,19.3,43.11,43.11,43.11c17.59,0,32.73-10.54,39.43-25.64h-10c-5.96,10.03-16.91,16.75-29.43,16.75-17.5,0-31.94-13.14-33.98-30.09h76.91c.13-1.37.19-2.74.19-4.13Zm-77.01-4.76c2.32-16.65,16.62-29.46,33.89-29.46s31.58,12.81,33.89,29.46h-67.78Z"/>
      </g>
    </g>
  </g>
</svg>